<?xml version="1.0" encoding="utf-8"?>
<!-- Generator: Adobe Illustrator 16.0.0, SVG Export Plug-In . SVG Version: 6.00 Build 0)  -->
<!DOCTYPE svg PUBLIC "-//W3C//DTD SVG 1.1//EN" "http://www.w3.org/Graphics/SVG/1.1/DTD/svg11.dtd">
<svg version="1.1" id="Calque_1" xmlns="http://www.w3.org/2000/svg" xmlns:xlink="http://www.w3.org/1999/xlink" x="0px" y="0px"
	 width="39.686px" height="39.688px" viewBox="0 0 39.686 39.688" enable-background="new 0 0 39.686 39.688" xml:space="preserve">
<g>
	<path fill="#1D1D1B" d="M33.27,0C24.32,0,15.37,0,6.418,0C2.884,0.743,0.744,2.883,0.001,6.417c0,8.95,0,17.902,0,26.853
		c0.743,3.533,2.882,5.674,6.417,6.418c4.512,0,9.021,0,13.535,0c0-4.961,0-9.92,0-14.881c-1.603,0-3.202,0-4.805,0
		c0.042-2.172-0.084-4.51,0.062-6.573c1.58,0,3.16,0,4.74,0c-0.351-5.204,1.254-8.669,4.551-10.302
		c2.109-1.048,5.005-0.657,8.216-0.634c0,2.17,0,4.342,0,6.512c-1.75,0-4.649-0.484-5.877,0.188
		c-1.092,0.602-0.66,2.574-0.759,4.234c2.189,0.042,4.55-0.083,6.636,0.062c-0.042,2.149,0.085,4.466-0.062,6.509
		c-2.17,0-4.34,0-6.51,0c-0.146,4.838-0.021,9.939-0.062,14.883c2.395,0,4.79,0,7.185,0c3.529-0.75,5.668-2.891,6.417-6.418
		c0-8.949,0-17.901,0-26.853C38.947,2.879,36.799,0.749,33.27,0z"/>
</g>
</svg>
