<?xml version="1.0" encoding="utf-8"?>
<!-- Generator: Adobe Illustrator 16.0.0, SVG Export Plug-In . SVG Version: 6.00 Build 0)  -->
<!DOCTYPE svg PUBLIC "-//W3C//DTD SVG 1.1//EN" "http://www.w3.org/Graphics/SVG/1.1/DTD/svg11.dtd">
<svg version="1.1" id="Calque_1" xmlns="http://www.w3.org/2000/svg" xmlns:xlink="http://www.w3.org/1999/xlink" x="0px" y="0px"
	 width="57.917px" height="108.667px" viewBox="0 0 57.917 108.667" enable-background="new 0 0 57.917 108.667"
	 xml:space="preserve">
<g>
	<path fill="#1E1E1C" d="M0.782,108.743l0.732-0.275l0.776-4.648l0.014-0.006l0.501,4.166l0.79-0.299l2.184-5.064l0.013-0.004
		l-0.783,4.535l0.732-0.277l0.841-5.084l-1.298,0.49l-1.946,4.666l-0.013,0.006l-0.385-3.785l-1.304,0.492L0.782,108.743
		L0.782,108.743z M7.156,104.575c-0.039,0.227-0.051,0.432-0.051,0.617c0,0.777,0.533,1.053,1.458,0.703
		c1.182-0.447,1.895-1.295,2.132-2.701l0.54-3.166l-0.732,0.277l-0.553,3.244c-0.135,0.746-0.591,1.326-1.266,1.58
		c-0.629,0.238-0.822-0.002-0.822-0.402c0-0.166,0.013-0.354,0.058-0.621l0.515-3.02l-0.733,0.277L7.156,104.575L7.156,104.575z
		 M14.822,99.043c-0.302-0.219-0.726-0.188-1.162-0.021c-1.182,0.445-1.771,1.49-1.771,2.219c0,1.553,1.798,0.229,1.798,1.309
		c0,0.211-0.193,0.801-1.003,1.107c-0.431,0.162-0.848,0.154-1.117-0.139l-0.128,0.809c0.397,0.234,0.751,0.195,1.291-0.01
		c0.951-0.359,1.676-1.293,1.676-2.258c0-1.395-1.76-0.279-1.76-1.174c0-0.312,0.18-0.793,1.016-1.109
		c0.379-0.143,0.79-0.094,1.027,0.115L14.822,99.043L14.822,99.043z M15.125,103.325l2.929-1.107l0.121-0.727l-2.195,0.83
		l0.237-1.434l2.229-0.844l0.122-0.727l-2.235,0.846l0.231-1.395l2.272-0.857l0.136-0.811l-3.006,1.137L15.125,103.325
		L15.125,103.325z M16.801,97.711l0.617-0.232l0.989-1.078v-0.016l-0.932,0.354L16.801,97.711L16.801,97.711z M19.063,101.836
		l2.928-1.105l0.122-0.727l-2.196,0.828l0.238-1.434l2.228-0.842l0.122-0.727l-2.234,0.844l0.23-1.393l2.273-0.859l0.135-0.809
		l-3.005,1.135L19.063,101.836L19.063,101.836z M25.978,99.223l0.731-0.275l0.777-4.648l0.013-0.004l0.5,4.166l0.79-0.299
		l2.186-5.066l0.012-0.004l-0.782,4.535l0.731-0.275l0.84-5.084l-1.297,0.49l-1.944,4.666l-0.013,0.004l-0.386-3.785l-1.302,0.492
		L25.978,99.223L25.978,99.223z M32.354,95.055c-0.039,0.227-0.054,0.432-0.054,0.619c0,0.777,0.533,1.051,1.458,0.701
		c1.184-0.447,1.896-1.295,2.133-2.701l0.541-3.166L35.7,90.786l-0.554,3.244c-0.135,0.746-0.592,1.324-1.267,1.58
		c-0.629,0.238-0.821-0.004-0.821-0.402c0-0.168,0.015-0.355,0.06-0.623l0.514-3.018l-0.729,0.275L32.354,95.055L32.354,95.055z
		 M40.018,89.524c-0.303-0.217-0.727-0.186-1.162-0.021c-1.184,0.447-1.771,1.492-1.771,2.219c0,1.555,1.798,0.23,1.798,1.311
		c0,0.211-0.19,0.799-1.002,1.105c-0.43,0.162-0.847,0.154-1.114-0.141l-0.131,0.811c0.398,0.234,0.754,0.193,1.291-0.01
		c0.951-0.359,1.678-1.293,1.678-2.258c0-1.395-1.762-0.279-1.762-1.172c0-0.314,0.182-0.795,1.018-1.111
		c0.379-0.143,0.789-0.094,1.025,0.115L40.018,89.524L40.018,89.524z M40.32,93.805l2.929-1.105l0.122-0.727l-2.196,0.828
		l0.238-1.434l2.229-0.842l0.121-0.727l-2.234,0.844l0.229-1.393l2.273-0.859l0.135-0.809l-3.003,1.135L40.32,93.805L40.32,93.805z
		 M44.512,90.461c-0.039,0.229-0.053,0.432-0.053,0.619c0,0.777,0.532,1.051,1.457,0.701c1.184-0.447,1.896-1.295,2.132-2.701
		l0.54-3.164l-0.73,0.275l-0.553,3.244c-0.137,0.748-0.593,1.326-1.267,1.58c-0.629,0.238-0.822-0.002-0.822-0.402
		c0-0.166,0.015-0.355,0.06-0.621l0.515-3.02l-0.729,0.275L44.512,90.461L44.512,90.461z M48.854,90.583l0.731-0.277l0.776-4.648
		l0.014-0.004l0.5,4.166l0.79-0.299l2.185-5.064l0.014-0.006l-0.783,4.535l0.73-0.275l0.842-5.084l-1.297,0.49l-1.945,4.666
		l-0.014,0.004L51.012,85l-1.306,0.494L48.854,90.583L48.854,90.583z"/>
	<path fill="#1E1E1C" d="M48.784,4.735c-0.093-0.517-0.25-1.142-0.543-1.786c-0.437-0.958-1.201-1.997-2.552-2.546
		c-0.67-0.272-1.479-0.41-2.385-0.364c-0.91,0.046-1.908,0.272-2.974,0.674L29.177,4.927c-1.657,0.626-3,2.476-3,4.133
		s1.343,2.493,3,1.867L40.33,6.713c0.23-0.085,0.426-0.145,0.596-0.186L27.317,40.082l-5.526,2.088L5.499,48.325
		c-1.657,0.626-3,2.476-3,4.134c0,1.654,1.343,2.492,3,1.866l16.292-6.155l2.275-0.859l-8.625,21.407v-3.432
		c0-1.656-1.343-2.492-3-1.865c-1.657,0.625-3,2.477-3,4.135V84.29c0,1.402,0.971,2.248,2.34,2.041
		c1.369-0.207,2.767-1.416,3.369-2.914L30.708,44.8l7.283-2.751l4.917-1.858v0.468c0,0.02,0.006,0.036,0.006,0.055V54.91v17.2
		c0,1.654,1.343,2.492,3,1.867c1.652-0.627,2.997-2.48,2.997-4.135V52.644V38.396v-1.471V17.204V6.052
		C48.911,5.927,48.906,5.425,48.784,4.735z M42.909,34.191l-4.915,1.857l-4.025,1.521l8.94-22.043v3.942V34.191L42.909,34.191z"/>
	<path fill="#1E1E1C" d="M0.083,101.43l4.854-1.832l0.203-1.205l-3.641,1.375l0.395-2.375l3.692-1.396l0.202-1.203l-3.705,1.4
		l0.383-2.307l3.767-1.424l0.224-1.338l-4.98,1.881L0.083,101.43L0.083,101.43z M8.325,98.317l1.213-0.457l1.171-7.086l2.097-0.793
		l0.224-1.338l-5.525,2.086l-0.223,1.34l2.213-0.836L8.325,98.317L8.325,98.317z M14.287,96.065l1.213-0.459l1.288-7.705
		l0.021-0.008l0.83,6.904l1.309-0.494l3.619-8.393l0.021-0.008l-1.298,7.516l1.213-0.457l1.396-8.424l-2.15,0.812l-3.226,7.732
		l-0.021,0.008l-0.639-6.273l-2.16,0.816L14.287,96.065L14.287,96.065z M28.621,87.362L26.43,88.19l1.787-4.607l0.021-0.008
		L28.621,87.362L28.621,87.362z M23.619,92.54l1.31-0.496l0.989-2.533l2.82-1.064l0.213,2.078l1.234-0.465l-0.928-7.545
		l-1.904,0.719L23.619,92.54L23.619,92.54z M33.675,82.098l1.448-0.547c0.725-0.275,1.555-0.588,1.555,0.297
		c0,1.096-0.99,1.746-1.896,2.088l-1.501,0.568L33.675,82.098L33.675,82.098z M31.301,89.637l1.215-0.459l0.647-3.99l2.544,2.785
		l1.511-0.572l-2.573-2.668c1.627-0.615,3.287-1.615,3.287-3.646c0-1.543-0.894-1.514-2.33-0.973l-2.928,1.107L31.301,89.637
		L31.301,89.637z M44.777,80.704l-1.213,0.457l-0.426,2.525c-0.354,0.449-0.916,0.846-1.543,1.082
		c-0.938,0.355-1.66,0.012-1.66-1.287c0-1.629,0.787-4.131,2.818-4.898c0.896-0.338,1.674-0.291,2.246,0.322l0.268-1.518
		c-0.797-0.678-1.713-0.426-2.642-0.076c-2.586,0.977-3.884,4.086-3.884,6.512c0,1.492,0.51,2.959,2.766,2.107
		c1.057-0.4,2.184-1.43,2.77-2.279L44.777,80.704L44.777,80.704z M45.826,84.149l4.854-1.834l0.201-1.203l-3.64,1.375l0.394-2.375
		l3.693-1.396l0.201-1.201l-3.702,1.398l0.383-2.307l3.769-1.424l0.226-1.34l-4.979,1.881L45.826,84.149L45.826,84.149z
		 M57.882,72.313c-0.5-0.365-1.2-0.314-1.925-0.039c-1.959,0.738-2.938,2.471-2.938,3.672c0,2.576,2.979,0.389,2.979,2.178
		c0,0.352-0.318,1.322-1.662,1.83c-0.712,0.27-1.402,0.254-1.852-0.229l-0.213,1.336c0.66,0.391,1.246,0.328,2.14-0.008
		c1.575-0.596,2.778-2.148,2.778-3.742c0-2.311-2.918-0.461-2.918-1.941c0-0.521,0.299-1.316,1.684-1.84
		c0.627-0.236,1.309-0.154,1.702,0.188L57.882,72.313L57.882,72.313z"/>
	<path fill="#1E1E1C" d="M23.248,79.211l-2.191,0.826l1.788-4.604l0.021-0.008L23.248,79.211L23.248,79.211z M18.246,84.389
		l1.31-0.496l0.989-2.535l2.82-1.064l0.213,2.08l1.234-0.465l-0.926-7.547l-1.905,0.719L18.246,84.389L18.246,84.389z
		 M28.302,73.946l1.447-0.545c0.726-0.275,1.556-0.588,1.556,0.297c0,1.098-0.99,1.748-1.896,2.09l-1.5,0.566L28.302,73.946
		L28.302,73.946z M25.928,81.487l1.213-0.459l0.648-3.992l2.544,2.787l1.513-0.572l-2.576-2.668
		c1.628-0.615,3.289-1.615,3.289-3.646c0-1.543-0.895-1.516-2.33-0.975L27.3,73.069L25.928,81.487L25.928,81.487z M34.674,78.182
		l1.215-0.459l1.17-7.086l2.096-0.791l0.225-1.342l-5.521,2.086l-0.226,1.342l2.216-0.838L34.674,78.182L34.674,78.182z"/>
</g>
</svg>
