<?xml version="1.0" encoding="utf-8"?>
<!-- Generator: Adobe Illustrator 16.0.0, SVG Export Plug-In . SVG Version: 6.00 Build 0)  -->
<!DOCTYPE svg PUBLIC "-//W3C//DTD SVG 1.1//EN" "http://www.w3.org/Graphics/SVG/1.1/DTD/svg11.dtd">
<svg version="1.1" id="Calque_1" xmlns="http://www.w3.org/2000/svg" xmlns:xlink="http://www.w3.org/1999/xlink" x="0px" y="0px"
	 width="160px" height="87.5px" viewBox="2.733 2.59 160 87.5" enable-background="new 2.733 2.59 160 87.5" xml:space="preserve">
<g>
	<path fill="#1D1D1B" d="M48.169,7.507c-0.091-0.53-0.246-1.172-0.533-1.836c-0.429-0.989-1.178-2.067-2.502-2.659
		c-0.656-0.293-1.449-0.452-2.335-0.426c-0.892,0.027-1.868,0.235-2.911,0.622L28.973,7.26c-1.622,0.603-2.934,2.461-2.932,4.153
		c0.002,1.692,1.317,2.577,2.939,1.975l10.915-4.051c0.226-0.082,0.417-0.138,0.583-0.177L27.195,43.124l-5.408,2.008L5.844,51.05
		c-1.622,0.603-2.934,2.462-2.932,4.155c0.002,1.691,1.318,2.576,2.94,1.974l15.944-5.918l2.227-0.826l-8.417,21.668L15.6,68.599
		c-0.002-1.691-1.318-2.576-2.939-1.975c-1.622,0.603-2.934,2.465-2.932,4.156L9.75,87.872c0.002,1.434,0.954,2.32,2.294,2.138
		c1.34-0.18,2.707-1.384,3.294-2.896l15.185-39.093l7.128-2.646l4.812-1.786v0.477c0,0.021,0.006,0.038,0.006,0.059l0.019,14.498
		l0.021,17.567c0.002,1.691,1.317,2.575,2.94,1.974c1.617-0.603,2.931-2.463,2.929-4.154l-0.021-17.567l-0.019-14.553l-0.002-1.502
		l-0.023-20.141L48.297,8.855C48.296,8.728,48.29,8.216,48.169,7.507z M42.454,37.46l-4.81,1.786l-3.939,1.462l8.726-22.312
		l0.006,4.027L42.454,37.46z"/>
</g>
<g>
	<path fill="#1D1E1C" d="M55.018,88.266l1.38-0.52l1.464-8.77l0.028-0.011l0.943,7.858l1.492-0.562l4.12-9.556l0.023-0.007
		l-1.478,8.557l1.381-0.523l1.587-9.592l-2.448,0.925l-3.672,8.804l-0.024,0.01l-0.727-7.141l-2.458,0.929L55.018,88.266
		L55.018,88.266z M67.043,80.403c-0.074,0.428-0.097,0.814-0.097,1.164c0,1.467,1.006,1.986,2.749,1.327
		c2.231-0.844,3.576-2.443,4.023-5.097l1.017-5.972l-1.379,0.522l-1.043,6.12c-0.257,1.408-1.114,2.502-2.39,2.98
		c-1.187,0.45-1.552-0.004-1.552-0.759c0-0.312,0.026-0.666,0.11-1.172l0.974-5.696l-1.383,0.523L67.043,80.403L67.043,80.403z
		 M81.505,69.967c-0.57-0.413-1.371-0.354-2.191-0.041c-2.23,0.841-3.343,2.812-3.343,4.187c0,2.93,3.394,0.431,3.394,2.469
		c0,0.397-0.364,1.512-1.894,2.09c-0.813,0.306-1.599,0.291-2.107-0.262l-0.24,1.525c0.749,0.442,1.415,0.368,2.436-0.019
		c1.794-0.678,3.162-2.439,3.162-4.259c0-2.632-3.32-0.527-3.32-2.215c0-0.59,0.339-1.496,1.916-2.094
		c0.715-0.269,1.49-0.176,1.938,0.218L81.505,69.967L81.505,69.967z M82.076,78.044l5.527-2.089l0.227-1.371l-4.141,1.566
		l0.446-2.705l4.205-1.592l0.231-1.37l-4.217,1.596l0.437-2.632l4.285-1.617l0.258-1.529l-5.672,2.145L82.076,78.044L82.076,78.044z
		 M85.237,67.454l1.165-0.438l1.866-2.034v-0.029l-1.76,0.667L85.237,67.454L85.237,67.454z M89.505,75.237l5.525-2.086l0.23-1.37
		l-4.145,1.562l0.448-2.705l4.204-1.588l0.23-1.371l-4.214,1.593l0.434-2.628l4.287-1.621l0.256-1.525l-5.669,2.141L89.505,75.237
		L89.505,75.237z M102.553,70.307l1.378-0.52l1.467-8.771l0.023-0.007l0.943,7.859l1.49-0.563l4.123-9.559L112,58.74l-1.476,8.557
		l1.38-0.52l1.584-9.592l-2.446,0.925l-3.668,8.803l-0.024,0.008l-0.729-7.141l-2.456,0.929L102.553,70.307L102.553,70.307z
		 M114.58,62.444c-0.074,0.428-0.102,0.814-0.102,1.168c0,1.466,1.006,1.981,2.75,1.323c2.233-0.845,3.578-2.443,4.024-5.097
		l1.021-5.974l-1.381,0.523l-1.044,6.121c-0.254,1.407-1.117,2.498-2.39,2.98c-1.187,0.449-1.55-0.007-1.55-0.759
		c0-0.317,0.028-0.671,0.113-1.176l0.969-5.693l-1.376,0.521L114.58,62.444L114.58,62.444z M129.039,52.008
		c-0.572-0.409-1.372-0.351-2.193-0.041c-2.233,0.844-3.342,2.815-3.342,4.187c0,2.933,3.392,0.435,3.392,2.473
		c0,0.397-0.359,1.507-1.891,2.086c-0.81,0.305-1.597,0.29-2.102-0.266l-0.246,1.529c0.751,0.441,1.421,0.364,2.436-0.019
		c1.793-0.679,3.164-2.439,3.164-4.261c0-2.63-3.323-0.526-3.323-2.21c0-0.593,0.343-1.5,1.92-2.097
		c0.715-0.27,1.488-0.177,1.935,0.217L129.039,52.008L129.039,52.008z M129.609,60.084l5.525-2.085l0.23-1.37l-4.144,1.562
		l0.449-2.704l4.206-1.588l0.229-1.371l-4.216,1.592l0.432-2.627l4.289-1.622l0.254-1.525l-5.665,2.142L129.609,60.084
		L129.609,60.084z M137.517,53.778c-0.073,0.43-0.1,0.813-0.1,1.167c0,1.467,1.004,1.982,2.75,1.323
		c2.232-0.844,3.577-2.443,4.021-5.096l1.02-5.97l-1.378,0.52l-1.043,6.12c-0.258,1.412-1.118,2.502-2.39,2.981
		c-1.187,0.449-1.551-0.004-1.551-0.759c0-0.314,0.027-0.671,0.112-1.172l0.971-5.696l-1.377,0.519L137.517,53.778L137.517,53.778z
		 M145.708,54.005l1.381-0.523l1.464-8.77l0.026-0.007l0.942,7.858l1.491-0.562l4.121-9.555l0.025-0.011l-1.478,8.556l1.378-0.52
		l1.589-9.592l-2.447,0.925l-3.669,8.804l-0.026,0.007l-0.727-7.141l-2.463,0.932L145.708,54.005L145.708,54.005z"/>
	<path fill="#1D1E1C" d="M53.698,74.47l9.158-3.456l0.383-2.273l-6.869,2.594l0.745-4.48l6.965-2.635l0.382-2.27l-6.99,2.642
		l0.723-4.352l7.105-2.687l0.424-2.523l-9.396,3.549L53.698,74.47L53.698,74.47z M69.248,68.597l2.288-0.862l2.209-13.368
		l3.957-1.496l0.421-2.523L67.7,54.281l-0.42,2.527l4.175-1.577L69.248,68.597L69.248,68.597z M80.495,64.348l2.289-0.865
		l2.43-14.536l0.039-0.015l1.565,13.025l2.471-0.933l6.826-15.833l0.041-0.015l-2.449,14.179l2.288-0.862l2.634-15.893l-4.056,1.533
		l-6.085,14.588l-0.041,0.015l-1.205-11.835l-4.075,1.539L80.495,64.348L80.495,64.348z M107.538,47.929l-4.135,1.562l3.372-8.692
		l0.04-0.015L107.538,47.929L107.538,47.929z M98.102,57.697l2.472-0.936l1.865-4.778l5.32-2.008l0.401,3.92l2.329-0.877
		l-1.751-14.234l-3.592,1.356L98.102,57.697L98.102,57.697z M117.072,37.998l2.732-1.031c1.366-0.52,2.933-1.109,2.933,0.56
		c0,2.067-1.867,3.294-3.576,3.939l-2.831,1.072L117.072,37.998L117.072,37.998z M112.593,52.222l2.292-0.865l1.223-7.529
		l4.799,5.255l2.85-1.08l-4.854-5.034c3.069-1.161,6.201-3.047,6.201-6.88c0-2.911-1.685-2.855-4.396-1.834l-5.523,2.089
		L112.593,52.222L112.593,52.222z M138.018,35.368l-2.288,0.862l-0.803,4.765c-0.667,0.847-1.729,1.596-2.911,2.042
		c-1.771,0.67-3.132,0.022-3.132-2.428c0-3.073,1.484-7.793,5.316-9.241c1.691-0.637,3.159-0.549,4.238,0.608l0.504-2.864
		c-1.503-1.278-3.231-0.803-4.983-0.143c-4.879,1.842-7.327,7.707-7.327,12.284c0,2.815,0.962,5.583,5.219,3.975
		c1.992-0.755,4.118-2.697,5.225-4.299L138.018,35.368L138.018,35.368z M139.997,41.867l9.156-3.46l0.379-2.27l-6.866,2.594
		l0.742-4.481l6.969-2.634l0.38-2.266l-6.985,2.638l0.723-4.351l7.109-2.687l0.426-2.528l-9.395,3.549L139.997,41.867
		L139.997,41.867z M162.741,19.539c-0.944-0.689-2.265-0.593-3.632-0.074c-3.696,1.393-5.542,4.661-5.542,6.928
		c0,4.86,5.619,0.733,5.619,4.108c0,0.663-0.6,2.494-3.136,3.452c-1.343,0.508-2.646,0.479-3.492-0.431l-0.402,2.521
		c1.245,0.737,2.351,0.619,4.036-0.015c2.973-1.124,5.242-4.052,5.242-7.059c0-4.359-5.505-0.87-5.505-3.663
		c0-0.984,0.563-2.483,3.176-3.471c1.183-0.446,2.469-0.291,3.211,0.354L162.741,19.539L162.741,19.539z"/>
	<path fill="#1D1E1C" d="M65.657,43.961l-4.134,1.559l3.374-8.685l0.039-0.015L65.657,43.961L65.657,43.961z M56.221,53.727
		l2.473-0.936l1.863-4.781l5.321-2.008l0.402,3.924l2.328-0.876l-1.746-14.239l-3.597,1.356L56.221,53.727L56.221,53.727z
		 M75.193,34.027l2.729-1.028c1.369-0.52,2.936-1.11,2.936,0.56c0,2.07-1.869,3.297-3.576,3.942l-2.83,1.068L75.193,34.027
		L75.193,34.027z M70.713,48.253l2.288-0.865l1.223-7.532l4.8,5.258l2.854-1.08l-4.86-5.033c3.073-1.161,6.204-3.048,6.204-6.881
		c0-2.911-1.688-2.859-4.396-1.838l-5.524,2.09L70.713,48.253L70.713,48.253z M87.213,42.019l2.292-0.866l2.207-13.369l3.954-1.492
		l0.423-2.532l-10.416,3.936l-0.426,2.531l4.181-1.581L87.213,42.019L87.213,42.019z"/>
</g>
</svg>
