<?xml version="1.0" encoding="UTF-8" standalone="no"?>
<!-- Generator: Adobe Illustrator 13.0.0, SVG Export Plug-In . SVG Version: 6.00 Build 14948)  -->

<svg
   xmlns:dc="http://purl.org/dc/elements/1.1/"
   xmlns:cc="http://creativecommons.org/ns#"
   xmlns:rdf="http://www.w3.org/1999/02/22-rdf-syntax-ns#"
   xmlns:svg="http://www.w3.org/2000/svg"
   xmlns="http://www.w3.org/2000/svg"
   xmlns:sodipodi="http://sodipodi.sourceforge.net/DTD/sodipodi-0.dtd"
   xmlns:inkscape="http://www.inkscape.org/namespaces/inkscape"
   version="1.1"
   id="Calque_1"
   x="0px"
   y="0px"
   width="39.686001"
   height="39.686001"
   viewBox="0 0 39.686 39.686002"
   enable-background="new 0 0 174.309 91.019"
   xml:space="preserve"
   inkscape:version="0.91 r"
   sodipodi:docname="facebook.svg"><metadata
     id="metadata15"><rdf:RDF><cc:Work
         rdf:about=""><dc:format>image/svg+xml</dc:format><dc:type
           rdf:resource="http://purl.org/dc/dcmitype/StillImage" /><dc:title></dc:title></cc:Work></rdf:RDF></metadata><defs
     id="defs13" /><sodipodi:namedview
     pagecolor="#ffffff"
     bordercolor="#666666"
     borderopacity="1"
     objecttolerance="10"
     gridtolerance="10"
     guidetolerance="10"
     inkscape:pageopacity="0"
     inkscape:pageshadow="2"
     inkscape:window-width="1920"
     inkscape:window-height="1016"
     id="namedview11"
     showgrid="false"
     fit-margin-top="0"
     fit-margin-left="0"
     fit-margin-right="0"
     fit-margin-bottom="0"
     inkscape:zoom="1.6350274"
     inkscape:cx="-62.618162"
     inkscape:cy="93.215124"
     inkscape:window-x="0"
     inkscape:window-y="27"
     inkscape:window-maximized="1"
     inkscape:current-layer="Calque_1" /><g
     id="g5"
     transform="translate(-88,-51.333)"><path
       d="m 121.269,51.333 c -8.95,0 -17.901,0 -26.852,0 -3.534,0.743 -5.674,2.883 -6.417,6.417 0,8.95 0,17.902 0,26.851 0.743,3.535 2.882,5.674 6.417,6.418 4.512,0 9.023,0 13.535,0 0,-4.961 0,-9.92 0,-14.881 -1.601,0 -3.202,0 -4.803,0 0.042,-2.17 -0.084,-4.508 0.062,-6.573 1.58,0 3.16,0 4.74,0 -0.349,-5.204 1.254,-8.669 4.551,-10.302 2.111,-1.046 5.005,-0.657 8.216,-0.632 0,2.17 0,4.34 0,6.51 -1.842,0.297 -4.649,-0.484 -5.877,0.189 -1.092,0.6 -0.66,2.574 -0.759,4.234 2.191,0.042 4.55,-0.083 6.636,0.063 -0.042,2.149 0.085,4.466 -0.062,6.509 -2.17,0 -4.34,0 -6.51,0 -0.146,4.836 -0.023,9.939 -0.062,14.881 2.395,0 4.79,0 7.185,0 3.529,-0.75 5.668,-2.889 6.417,-6.418 0,-8.949 0,-17.901 0,-26.851 -0.74,-3.536 -2.888,-5.666 -6.417,-6.415 z"
       id="path7"
       inkscape:connector-curvature="0"
       style="fill:#0000ff" /></g></svg>