<?xml version="1.0" encoding="UTF-8" standalone="no"?>
<!-- Generator: Adobe Illustrator 13.0.0, SVG Export Plug-In . SVG Version: 6.00 Build 14948)  -->

<svg
   xmlns:dc="http://purl.org/dc/elements/1.1/"
   xmlns:cc="http://creativecommons.org/ns#"
   xmlns:rdf="http://www.w3.org/1999/02/22-rdf-syntax-ns#"
   xmlns:svg="http://www.w3.org/2000/svg"
   xmlns="http://www.w3.org/2000/svg"
   xmlns:sodipodi="http://sodipodi.sourceforge.net/DTD/sodipodi-0.dtd"
   xmlns:inkscape="http://www.inkscape.org/namespaces/inkscape"
   version="1.1"
   id="Calque_1"
   x="0px"
   y="0px"
   width="39.686001"
   height="39.685001"
   viewBox="0 0 39.686002 39.685001"
   enable-background="new 0 0 269.025 123.996"
   xml:space="preserve"
   inkscape:version="0.91 r"
   sodipodi:docname="mail.svg"><metadata
     id="metadata15"><rdf:RDF><cc:Work
         rdf:about=""><dc:format>image/svg+xml</dc:format><dc:type
           rdf:resource="http://purl.org/dc/dcmitype/StillImage" /><dc:title></dc:title></cc:Work></rdf:RDF></metadata><defs
     id="defs13" /><sodipodi:namedview
     pagecolor="#ffffff"
     bordercolor="#666666"
     borderopacity="1"
     objecttolerance="10"
     gridtolerance="10"
     guidetolerance="10"
     inkscape:pageopacity="0"
     inkscape:pageshadow="2"
     inkscape:window-width="1920"
     inkscape:window-height="1016"
     id="namedview11"
     showgrid="false"
     fit-margin-top="0"
     fit-margin-left="0"
     fit-margin-right="0"
     fit-margin-bottom="0"
     inkscape:zoom="1.0593811"
     inkscape:cx="-189.22124"
     inkscape:cy="-25.144843"
     inkscape:window-x="0"
     inkscape:window-y="27"
     inkscape:window-maximized="1"
     inkscape:current-layer="Calque_1" /><path
     d="M 33.268,0 6.417,0 C 2.883,0.743 0.744,2.8820001 0,6.4160001 L 0,33.268 c 0.743,3.536 2.882,5.674 6.417,6.417 l 26.851,0 c 3.529,-0.749 5.668,-2.888 6.418,-6.417 l 0,-26.8519999 C 38.946,2.8780001 36.798,0.748 33.268,0 Z M 32.927,10.414 19.706,23.079 6.739,10.414 l 26.188,0 z M 5.382,29.27 l 0,-17.811 0.31,0.292 14.003,13.244 14.611,-13.669 0,17.944 -28.924,0 z"
     id="path9"
     inkscape:connector-curvature="0"
     style="fill:#0000ff" /></svg>