<?xml version="1.0" encoding="UTF-8" standalone="no"?>
<!-- Generator: Adobe Illustrator 13.0.0, SVG Export Plug-In . SVG Version: 6.00 Build 14948)  -->

<svg
   xmlns:dc="http://purl.org/dc/elements/1.1/"
   xmlns:cc="http://creativecommons.org/ns#"
   xmlns:rdf="http://www.w3.org/1999/02/22-rdf-syntax-ns#"
   xmlns:svg="http://www.w3.org/2000/svg"
   xmlns="http://www.w3.org/2000/svg"
   xmlns:sodipodi="http://sodipodi.sourceforge.net/DTD/sodipodi-0.dtd"
   xmlns:inkscape="http://www.inkscape.org/namespaces/inkscape"
   version="1.1"
   id="Calque_1"
   x="0px"
   y="0px"
   width="39.685001"
   height="39.686001"
   viewBox="0 0 39.685 39.686"
   enable-background="new 0 0 315.648 128.897"
   xml:space="preserve"
   inkscape:version="0.91 r"
   sodipodi:docname="twitter.svg"><metadata
     id="metadata15"><rdf:RDF><cc:Work
         rdf:about=""><dc:format>image/svg+xml</dc:format><dc:type
           rdf:resource="http://purl.org/dc/dcmitype/StillImage" /><dc:title></dc:title></cc:Work></rdf:RDF></metadata><defs
     id="defs13" /><sodipodi:namedview
     pagecolor="#ffffff"
     bordercolor="#666666"
     borderopacity="1"
     objecttolerance="10"
     gridtolerance="10"
     guidetolerance="10"
     inkscape:pageopacity="0"
     inkscape:pageshadow="2"
     inkscape:window-width="1920"
     inkscape:window-height="1016"
     id="namedview11"
     showgrid="false"
     fit-margin-top="0"
     fit-margin-left="0"
     fit-margin-right="0"
     fit-margin-bottom="0"
     inkscape:zoom="0.90290447"
     inkscape:cx="-183.37722"
     inkscape:cy="-19.861502"
     inkscape:window-x="0"
     inkscape:window-y="27"
     inkscape:window-maximized="1"
     inkscape:current-layer="Calque_1" /><path
     d="M 33.267,0 6.417,0 C 2.882,0.743 0.743,2.883 0,6.417 L 0,33.27 c 0.743,3.535 2.882,5.674 6.417,6.416 l 26.85,0 c 3.529,-0.748 5.668,-2.887 6.418,-6.416 l 0,-26.853 C 38.945,2.879 36.797,0.749 33.267,0 Z m -3.552,15.4 c 0.029,8.438 -6.16,15.038 -14.61,14.512 -2.745,-0.17 -4.489,-0.945 -6.615,-2.072 2.279,0.125 5.416,-0.623 7.01,-2.074 -2.258,-0.375 -3.808,-1.457 -4.443,-3.455 0.566,0.242 1.465,0.037 2.074,0 -2.094,-0.801 -3.644,-2.148 -3.851,-4.836 0.709,0.146 1.179,0.531 2.073,0.492 -1.382,-0.824 -2.824,-4.23 -1.383,-6.416 2.416,2.619 5.352,4.718 10.07,5.035 -1.215,-5.268 5.417,-7.713 8.391,-4.443 1.09,-0.258 2.057,-0.642 2.961,-1.086 -0.316,1.197 -1.123,1.904 -1.975,2.566 1.066,-0.053 1.826,-0.41 2.666,-0.689 -0.657,0.953 -1.454,1.769 -2.368,2.466 z"
     id="path3"
     inkscape:connector-curvature="0"
     style="clip-rule:evenodd;fill:#0000ff;fill-rule:evenodd" /></svg>