<?xml version="1.0" encoding="utf-8"?>
<!-- Generator: Adobe Illustrator 15.0.0, SVG Export Plug-In . SVG Version: 6.00 Build 0)  -->
<!DOCTYPE svg PUBLIC "-//W3C//DTD SVG 1.0//EN" "http://www.w3.org/TR/2001/REC-SVG-20010904/DTD/svg10.dtd">
<svg version="1.0"
	 id="Calque_1" sodipodi:docname="twitter.svg" inkscape:version="0.91 r" xmlns:inkscape="http://www.inkscape.org/namespaces/inkscape" xmlns:sodipodi="http://sodipodi.sourceforge.net/DTD/sodipodi-0.dtd" xmlns:rdf="http://www.w3.org/1999/02/22-rdf-syntax-ns#" xmlns:svg="http://www.w3.org/2000/svg" xmlns:cc="http://creativecommons.org/ns#" xmlns:dc="http://purl.org/dc/elements/1.1/"
	 xmlns="http://www.w3.org/2000/svg" xmlns:xlink="http://www.w3.org/1999/xlink" x="0px" y="0px" width="39.686px"
	 height="39.686px" viewBox="0 0 39.686 39.686" enable-background="new 0 0 39.686 39.686" xml:space="preserve">
<sodipodi:namedview  borderopacity="1" id="namedview11" bordercolor="#666666" objecttolerance="10" pagecolor="#ffffff" gridtolerance="10" guidetolerance="10" inkscape:pageopacity="0" inkscape:pageshadow="2" inkscape:window-width="1920" inkscape:window-height="1016" showgrid="false" fit-margin-top="0" inkscape:zoom="0.90290447" fit-margin-left="0" fit-margin-right="0" fit-margin-bottom="0" inkscape:cx="-183.37722" inkscape:cy="-19.861502" inkscape:window-x="0" inkscape:window-y="27" inkscape:window-maximized="1" inkscape:current-layer="Calque_1">
	</sodipodi:namedview>
<path id="path3" inkscape:connector-curvature="0" fill="#0000FF" d="M33.361-0.065H6.51C2.975,0.678,0.836,2.818,0.093,6.352
	v26.853c0.743,3.535,2.882,5.674,6.417,6.416h26.851c3.528-0.748,5.668-2.887,6.418-6.416V6.352
	C39.039,2.814,36.89,0.684,33.361-0.065z"/>
<path fill="#FFFFFF" d="M31.411,4.246c2.225-0.486,3.995,1.025,3.536,3.391c-0.722,3.719-7.138,2.043-5.514-1.849
	C29.632,5.308,30.288,4.49,31.411,4.246z"/>
<g>
	<path fill="#0000FF" d="M19.198,12.596c7.038-0.799,10.544,7.765,5.973,12.277c-4.186,4.138-12.205,1.504-12.526-4.757
		C12.441,16.062,15.374,13.031,19.198,12.596z"/>
	<path fill="#FFFFFF" d="M29.316,13.357c3.822,5.476,1.366,12.707-2.891,15.612c-7.189,4.9-17.059,0.004-17.73-8.091
		c-0.284-3.432,1.077-6.425,2.119-7.807c1.574-2.079,4.195-4.005,7.902-4.377C23.936,8.173,27.587,10.886,29.316,13.357z
		 M25.171,24.873c4.571-4.512,1.065-13.076-5.973-12.277c-3.824,0.435-6.757,3.465-6.553,7.52
		C12.966,26.377,20.985,29.011,25.171,24.873z"/>
</g>
</svg>
