<?xml version="1.0" encoding="utf-8"?>
<!DOCTYPE svg PUBLIC "-//W3C//DTD SVG 1.1//EN" "http://www.w3.org/Graphics/SVG/1.1/DTD/svg11.dtd">
<svg version="1.1" id="Layer_1" xmlns="http://www.w3.org/2000/svg" xmlns:xlink="http://www.w3.org/1999/xlink" x="0px" y="0px"
	 width="38.407px" height="74.133px" viewBox="0 0 38.407 74.133" enable-background="new 0 0 38.407 74.133" xml:space="preserve">
<g>
	<g>
		<defs>
			<rect id="SVGID_1_" y="-2.686" width="53.4" height="86"/>
		</defs>
		<clipPath id="SVGID_2_">
			<use xlink:href="#SVGID_1_"  overflow="visible"/>
		</clipPath>
		<path clip-path="url(#SVGID_2_)" fill="#FFFFFF" d="M38.209,59.292C25.193,60.92,11.814,66.047-1.203,74.674V15.65
			C11.814,7.022,25.193,1.894,38.209,0.266V59.292z"/>
		<path clip-path="url(#SVGID_2_)" fill="none" stroke="#1D1D1B" stroke-width="0.4" stroke-miterlimit="10" d="M38.209,59.292
			C25.193,60.92,11.814,66.047-1.203,74.674V15.65C11.814,7.022,25.193,1.894,38.209,0.266V59.292z"/>
		<path clip-path="url(#SVGID_2_)" fill="#00D694" d="M28.817,27.275c-0.051-0.265-0.289-0.674-0.651-1.03
			c-0.183-0.173-0.53-0.321-0.843-0.382c-0.311-0.062-0.664-0.037-1.021,0.063c-1.041,0.29-2.085,0.426-3.129,0.767
			c-2.859,0.936-5.724,2.246-8.584,3.566c-2.875,1.327-5.746,2.849-8.601,4.563c-0.698,0.417-1.26,1.335-1.26,2.035
			c0,0.699,0.562,1.139,1.26,0.721c2.855-1.715,5.726-3.281,8.601-4.608c0.571-0.264,1.142-0.514,1.713-0.763
			c-1.798,4.55-3.098,7.85-4.892,12.551v-2.627c0-0.697-0.792-0.835-1.493-0.457c-0.698,0.377-1.265,1.4-1.265,2.1v8.825
			c0,0.593,0.41,0.872,0.987,0.688c0.577-0.186,1.168-0.785,1.422-1.451c2.769-7.263,5.637-14.071,8.414-20.972
			c1.354-0.529,2.346-0.791,3.698-1.234c1.044-0.341,1.765-0.558,2.808-0.858c0,0-0.07,5.058-0.07,7.821
			c0,3.025,0.091,6.05,0.091,9.075c0,0.697,0.658,1.103,1.357,0.918c0.697-0.181,1.399-0.883,1.399-1.582v-9.074
			c0-2.763,0.091-5.527,0.091-8.291C28.85,27.587,28.847,27.456,28.817,27.275"/>
		<path clip-path="url(#SVGID_2_)" fill="none" stroke="#1D1D1B" stroke-width="0.4" stroke-miterlimit="10" d="M28.867,10.898
			c-0.048-0.274-0.13-0.608-0.281-0.962c-0.228-0.526-0.622-1.117-1.321-1.481c-0.346-0.181-0.766-0.297-1.235-0.316
			c-0.472-0.02-0.989,0.053-1.542,0.224c-1.928,0.595-3.86,1.278-5.794,2.051c-0.861,0.345-1.559,1.339-1.559,2.196
			s0.698,1.253,1.559,0.908c1.934-0.773,3.866-1.457,5.794-2.051c0.12-0.036,0.222-0.059,0.31-0.074
			c-2.355,5.617-4.715,11.365-7.074,17.249c-0.956,0.398-1.912,0.808-2.868,1.25c-2.82,1.301-5.636,2.794-8.436,4.475
			c-0.855,0.514-1.546,1.643-1.546,2.501s0.691,1.116,1.546,0.604c2.8-1.682,5.616-3.175,8.436-4.476
			c0.395-0.182,0.79-0.352,1.185-0.527c-1.495,3.792-2.988,7.626-4.479,11.525V42.22c0-0.856-0.696-1.195-1.555-0.732
			c-0.857,0.461-1.551,1.553-1.551,2.411v8.659c0,0.728,0.502,1.067,1.21,0.841c0.708-0.229,1.432-0.959,1.745-1.777
			c2.689-7.037,5.384-13.896,8.08-20.586c1.261-0.489,2.524-0.945,3.785-1.358c0.85-0.278,1.701-0.529,2.549-0.774v0.233
			c0,0.012,0.004,0.024,0.004,0.036v7.336v8.9c0,0.855,0.696,1.349,1.555,1.125c0.854-0.228,1.547-1.086,1.547-1.941v-8.9V28.32
			v-0.759V17.358v-5.77C28.93,11.524,28.928,11.264,28.867,10.898z M23.275,26.572c-0.696,0.228-1.392,0.467-2.088,0.718
			c1.547-3.775,3.094-7.495,4.637-11.155v2.038V25.8C24.977,26.044,24.125,26.294,23.275,26.572z"/>
		<path clip-path="url(#SVGID_2_)" fill="#1D1D1B" d="M3.991,66.212c0.125-0.081,0.25-0.159,0.376-0.24
			c0.133-0.836,0.266-1.671,0.4-2.505c0.001-0.002,0.004-0.004,0.006-0.005c0.086,0.697,0.172,1.394,0.258,2.092
			c0.135-0.086,0.271-0.169,0.406-0.252c0.376-0.963,0.75-1.922,1.126-2.878c0.002,0,0.005-0.002,0.007-0.004
			c-0.134,0.812-0.269,1.624-0.404,2.436c0.126-0.076,0.252-0.151,0.378-0.228c0.144-0.908,0.289-1.815,0.433-2.724
			c-0.223,0.133-0.446,0.266-0.669,0.4c-0.335,0.879-0.669,1.762-1.003,2.647c-0.002,0.001-0.005,0.002-0.006,0.003
			c-0.067-0.637-0.132-1.273-0.198-1.911c-0.224,0.14-0.448,0.28-0.673,0.422C4.283,64.382,4.137,65.297,3.991,66.212 M7.274,63.287
			c-0.02,0.12-0.027,0.229-0.027,0.323c0,0.402,0.276,0.486,0.754,0.213c0.61-0.352,0.979-0.854,1.102-1.602
			c0.092-0.562,0.186-1.127,0.279-1.689c-0.126,0.07-0.253,0.142-0.379,0.211c-0.095,0.576-0.191,1.152-0.286,1.73
			c-0.069,0.398-0.306,0.741-0.654,0.941c-0.325,0.186-0.424,0.08-0.424-0.125c0-0.087,0.006-0.184,0.03-0.327
			c0.089-0.538,0.177-1.076,0.265-1.612c-0.126,0.072-0.252,0.145-0.379,0.217C7.461,62.139,7.368,62.713,7.274,63.287
			 M11.239,59.729c-0.156-0.091-0.375-0.041-0.601,0.078c-0.613,0.326-0.917,0.92-0.917,1.293c0,0.803,0.93-0.031,0.93,0.529
			c0,0.109-0.099,0.43-0.519,0.655c-0.224,0.12-0.439,0.151-0.578,0.024c-0.022,0.143-0.045,0.285-0.066,0.428
			c0.205,0.088,0.388,0.037,0.667-0.113c0.493-0.266,0.869-0.803,0.869-1.303c0-0.724-0.912-0.006-0.912-0.467
			c0-0.16,0.093-0.427,0.527-0.656c0.196-0.104,0.409-0.109,0.531-0.021C11.193,60.03,11.216,59.878,11.239,59.729 M11.397,61.921
			c0.506-0.261,1.012-0.519,1.518-0.767c0.021-0.129,0.043-0.256,0.063-0.383c-0.379,0.186-0.759,0.377-1.138,0.57
			c0.04-0.253,0.081-0.505,0.123-0.758c0.386-0.196,0.771-0.389,1.156-0.578c0.021-0.127,0.042-0.255,0.062-0.382
			c-0.386,0.187-0.772,0.38-1.158,0.576c0.04-0.245,0.08-0.491,0.119-0.736c0.394-0.198,0.787-0.394,1.179-0.584
			c0.024-0.144,0.047-0.283,0.071-0.426c-0.521,0.251-1.04,0.511-1.56,0.776C11.688,60.127,11.542,61.024,11.397,61.921
			 M12.267,58.903c0.107-0.055,0.213-0.106,0.319-0.16c0.171-0.208,0.343-0.413,0.514-0.62v-0.007l-0.483,0.238
			C12.5,58.538,12.382,58.719,12.267,58.903 M13.439,60.897c0.507-0.244,1.014-0.484,1.521-0.718
			c0.021-0.127,0.041-0.253,0.063-0.38c-0.38,0.176-0.76,0.354-1.141,0.533c0.041-0.251,0.083-0.503,0.124-0.755
			c0.385-0.183,0.771-0.361,1.157-0.538c0.021-0.127,0.042-0.254,0.063-0.38c-0.386,0.176-0.773,0.356-1.159,0.538
			c0.039-0.242,0.079-0.487,0.119-0.731c0.393-0.187,0.787-0.369,1.18-0.546c0.024-0.143,0.047-0.285,0.07-0.425
			c-0.52,0.235-1.04,0.477-1.561,0.726C13.73,59.114,13.585,60.005,13.439,60.897 M17.031,59.262
			c0.126-0.055,0.252-0.107,0.379-0.162c0.135-0.808,0.27-1.615,0.404-2.421c0.002-0.001,0.005-0.003,0.007-0.003l0.26,2.146
			c0.137-0.057,0.274-0.111,0.411-0.166c0.379-0.885,0.758-1.766,1.136-2.641c0.002-0.003,0.004-0.003,0.006-0.004
			c-0.136,0.784-0.271,1.568-0.406,2.352c0.127-0.049,0.253-0.1,0.378-0.148c0.147-0.878,0.292-1.754,0.437-2.633
			c-0.223,0.085-0.449,0.171-0.673,0.259c-0.337,0.81-0.674,1.621-1.011,2.435c-0.003,0.002-0.004,0.004-0.007,0.004
			c-0.067-0.649-0.134-1.301-0.201-1.95c-0.225,0.092-0.451,0.184-0.676,0.278C17.328,57.493,17.179,58.377,17.031,59.262
			 M20.344,57.026c-0.019,0.115-0.027,0.223-0.027,0.318c0,0.403,0.278,0.545,0.759,0.37c0.614-0.224,0.984-0.649,1.107-1.373
			c0.093-0.541,0.187-1.086,0.28-1.627c-0.126,0.043-0.252,0.087-0.378,0.131c-0.096,0.556-0.193,1.114-0.289,1.671
			c-0.07,0.383-0.307,0.678-0.659,0.803c-0.326,0.117-0.426-0.006-0.426-0.213c0-0.088,0.007-0.183,0.03-0.321
			c0.089-0.519,0.178-1.039,0.267-1.558c-0.126,0.045-0.253,0.092-0.38,0.139C20.533,55.917,20.438,56.471,20.344,57.026
			 M24.324,54.301c-0.157-0.124-0.375-0.122-0.601-0.05c-0.616,0.196-0.921,0.728-0.921,1.103c0,0.801,0.933,0.164,0.933,0.726
			c0,0.106-0.1,0.405-0.519,0.544c-0.225,0.072-0.441,0.058-0.58-0.098c-0.022,0.139-0.045,0.277-0.067,0.416
			c0.206,0.129,0.391,0.117,0.671,0.024c0.491-0.163,0.869-0.621,0.869-1.121c0-0.722-0.914-0.196-0.914-0.655
			c0-0.162,0.095-0.408,0.528-0.547c0.197-0.063,0.409-0.024,0.533,0.092C24.279,54.589,24.302,54.444,24.324,54.301 M24.482,56.524
			c0.506-0.154,1.012-0.306,1.517-0.449c0.022-0.122,0.043-0.246,0.063-0.37c-0.378,0.108-0.757,0.219-1.137,0.332
			c0.041-0.243,0.083-0.487,0.123-0.732c0.386-0.114,0.772-0.227,1.157-0.335c0.02-0.123,0.041-0.246,0.061-0.369
			c-0.384,0.108-0.772,0.221-1.156,0.336c0.039-0.236,0.079-0.475,0.119-0.711c0.392-0.117,0.786-0.229,1.178-0.339
			c0.023-0.138,0.046-0.274,0.069-0.413c-0.519,0.146-1.038,0.295-1.557,0.451C24.773,54.792,24.627,55.657,24.482,56.524
			 M26.655,54.983c-0.02,0.113-0.028,0.22-0.028,0.316c0,0.402,0.277,0.57,0.757,0.445c0.61-0.16,0.978-0.549,1.101-1.26
			c0.093-0.534,0.187-1.067,0.279-1.601c-0.126,0.03-0.251,0.06-0.378,0.093c-0.095,0.547-0.19,1.094-0.284,1.643
			c-0.072,0.374-0.309,0.646-0.654,0.736c-0.327,0.084-0.428-0.052-0.428-0.256c0-0.087,0.006-0.184,0.03-0.318
			c0.089-0.512,0.177-1.021,0.267-1.533c-0.127,0.033-0.252,0.066-0.379,0.102C26.843,53.893,26.75,54.438,26.655,54.983
			 M28.901,55.317c0.127-0.03,0.252-0.061,0.379-0.09c0.134-0.783,0.268-1.562,0.4-2.344c0.004-0.002,0.006-0.003,0.008-0.003
			c0.086,0.731,0.172,1.463,0.258,2.196c0.137-0.031,0.271-0.059,0.408-0.09c0.375-0.812,0.752-1.619,1.127-2.424
			c0-0.002,0.004-0.002,0.004-0.004c-0.133,0.758-0.268,1.516-0.401,2.275c0.124-0.025,0.251-0.053,0.375-0.076
			c0.146-0.852,0.29-1.699,0.435-2.55c-0.223,0.042-0.445,0.087-0.668,0.131c-0.334,0.745-0.668,1.493-1.004,2.244
			c-0.002,0-0.005,0.002-0.005,0.003c-0.067-0.664-0.134-1.328-0.2-1.992c-0.225,0.051-0.449,0.102-0.674,0.153
			C29.196,53.602,29.049,54.46,28.901,55.317"/>
		<path clip-path="url(#SVGID_2_)" fill="#1D1D1B" d="M3.631,62.525c0.831-0.538,1.663-1.062,2.498-1.565
			c0.035-0.216,0.07-0.432,0.104-0.647c-0.626,0.378-1.25,0.765-1.875,1.159c0.068-0.424,0.136-0.85,0.203-1.277
			c0.634-0.4,1.268-0.791,1.903-1.172c0.034-0.215,0.069-0.43,0.104-0.645c-0.637,0.381-1.273,0.771-1.909,1.172
			c0.066-0.416,0.131-0.83,0.197-1.243c0.646-0.405,1.293-0.8,1.942-1.185c0.038-0.24,0.077-0.479,0.115-0.718
			c-0.856,0.508-1.712,1.032-2.565,1.575C4.109,59.494,3.871,61.008,3.631,62.525 M7.878,59.926c0.208-0.12,0.418-0.239,0.626-0.357
			c0.202-1.26,0.405-2.52,0.606-3.777c0.362-0.199,0.723-0.397,1.085-0.593c0.039-0.235,0.078-0.474,0.117-0.711
			c-0.954,0.511-1.907,1.044-2.858,1.599c-0.038,0.238-0.076,0.477-0.115,0.717c0.381-0.223,0.762-0.443,1.143-0.658
			C8.281,57.404,8.081,58.665,7.878,59.926 M10.962,58.229c0.21-0.111,0.419-0.221,0.629-0.327c0.222-1.358,0.445-2.719,0.668-4.076
			c0.004,0,0.008-0.003,0.011-0.005c0.144,1.173,0.287,2.346,0.431,3.52c0.226-0.111,0.453-0.224,0.679-0.334
			c0.626-1.515,1.252-3.021,1.879-4.518c0.003-0.001,0.007-0.004,0.011-0.005c-0.226,1.313-0.45,2.629-0.675,3.944
			c0.21-0.098,0.421-0.195,0.63-0.291c0.242-1.471,0.484-2.94,0.726-4.408c-0.373,0.164-0.744,0.334-1.117,0.506
			c-0.559,1.38-1.118,2.77-1.676,4.165c-0.003,0.002-0.007,0.003-0.01,0.004c-0.111-1.067-0.221-2.136-0.332-3.204
			c-0.374,0.184-0.747,0.371-1.12,0.562C11.451,55.249,11.208,56.738,10.962,58.229 M18.405,53.071
			c-0.38,0.154-0.759,0.311-1.139,0.471c0.309-0.809,0.618-1.615,0.929-2.42c0.003,0,0.007-0.002,0.01-0.004
			C18.271,51.769,18.338,52.42,18.405,53.071 M15.807,55.877c0.226-0.102,0.452-0.201,0.679-0.302
			c0.172-0.444,0.343-0.892,0.515-1.337c0.488-0.209,0.976-0.412,1.465-0.607c0.037,0.356,0.075,0.713,0.112,1.07
			c0.213-0.086,0.427-0.17,0.641-0.254c-0.161-1.298-0.321-2.597-0.482-3.895c-0.33,0.132-0.66,0.266-0.99,0.404
			C17.1,52.586,16.453,54.228,15.807,55.877 M21.031,50.326c0.251-0.09,0.502-0.18,0.753-0.268c0.376-0.134,0.807-0.279,0.807,0.18
			c0,0.567-0.512,0.886-0.984,1.052c-0.26,0.092-0.52,0.186-0.78,0.28C20.896,51.157,20.963,50.741,21.031,50.326 M19.798,54.224
			c0.21-0.081,0.421-0.16,0.631-0.239c0.113-0.688,0.224-1.376,0.336-2.062c0.441,0.483,0.883,0.973,1.323,1.467
			c0.26-0.09,0.523-0.18,0.784-0.268c-0.446-0.479-0.89-0.953-1.336-1.422c0.845-0.302,1.707-0.777,1.707-1.828
			c0-0.798-0.465-0.808-1.21-0.549c-0.508,0.176-1.015,0.357-1.522,0.545C20.274,51.318,20.037,52.77,19.798,54.224 M26.792,49.947
			c-0.209,0.058-0.418,0.116-0.628,0.175c-0.073,0.428-0.148,0.855-0.22,1.285c-0.183,0.215-0.475,0.395-0.799,0.493
			c-0.489,0.144-0.862-0.058-0.862-0.729c0-0.84,0.408-2.115,1.462-2.422c0.463-0.135,0.867-0.068,1.163,0.281
			c0.046-0.258,0.092-0.515,0.138-0.771c-0.412-0.395-0.887-0.312-1.368-0.174c-1.341,0.391-2.014,1.974-2.013,3.226
			c0,0.774,0.262,1.538,1.434,1.187c0.547-0.164,1.131-0.644,1.435-1.052C26.621,50.946,26.707,50.446,26.792,49.947 M27.336,51.79
			c0.837-0.221,1.673-0.424,2.509-0.609c0.034-0.203,0.069-0.406,0.103-0.608c-0.625,0.14-1.252,0.288-1.879,0.446
			c0.067-0.401,0.136-0.803,0.203-1.202c0.637-0.159,1.271-0.308,1.907-0.446c0.034-0.201,0.069-0.404,0.103-0.604
			c-0.635,0.138-1.273,0.284-1.91,0.442c0.066-0.389,0.132-0.779,0.199-1.168c0.648-0.158,1.297-0.306,1.945-0.443
			c0.037-0.225,0.076-0.449,0.115-0.676c-0.857,0.183-1.715,0.381-2.574,0.597C27.817,48.941,27.577,50.365,27.336,51.79
			 M33.553,46.691c-0.257-0.245-0.615-0.292-0.988-0.226c-1.008,0.184-1.513,0.998-1.513,1.619c0.001,1.324,1.533,0.481,1.533,1.412
			c0,0.182-0.164,0.648-0.854,0.781c-0.367,0.071-0.724,0.002-0.957-0.287c-0.035,0.225-0.07,0.449-0.107,0.674
			c0.34,0.258,0.643,0.277,1.104,0.189c0.811-0.157,1.428-0.827,1.428-1.652c0.002-1.201-1.5-0.541-1.5-1.303
			c0-0.268,0.152-0.654,0.865-0.784c0.323-0.058,0.674,0.06,0.875,0.277C33.477,47.158,33.516,46.924,33.553,46.691"/>
		<path clip-path="url(#SVGID_2_)" fill="#1D1D1B" d="M15.613,48.995c-0.38,0.17-0.758,0.344-1.137,0.523
			c0.309-0.823,0.618-1.643,0.928-2.461l0.011-0.005C15.48,47.7,15.546,48.348,15.613,48.995 M13.016,51.918
			c0.227-0.111,0.453-0.222,0.68-0.33c0.171-0.455,0.343-0.909,0.514-1.362c0.488-0.231,0.976-0.456,1.464-0.675
			c0.037,0.355,0.074,0.713,0.111,1.07c0.214-0.097,0.426-0.191,0.641-0.283c-0.161-1.293-0.321-2.584-0.482-3.875
			c-0.33,0.146-0.66,0.296-0.989,0.447C14.309,48.57,13.662,50.239,13.016,51.918 M18.24,46.136c0.25-0.103,0.501-0.204,0.752-0.304
			c0.378-0.149,0.809-0.314,0.809,0.146c0,0.565-0.516,0.907-0.986,1.094c-0.261,0.104-0.52,0.21-0.781,0.317
			C18.103,46.97,18.171,46.553,18.24,46.136 M17.005,50.086c0.21-0.09,0.42-0.178,0.63-0.266c0.113-0.693,0.225-1.386,0.337-2.078
			c0.441,0.465,0.882,0.936,1.322,1.408c0.262-0.102,0.524-0.204,0.787-0.302c-0.446-0.46-0.892-0.915-1.339-1.364
			c0.846-0.339,1.709-0.852,1.709-1.902c0-0.799-0.465-0.787-1.21-0.496c-0.509,0.197-1.016,0.402-1.523,0.612
			C17.48,47.161,17.244,48.624,17.005,50.086 M21.552,48.311c0.21-0.076,0.419-0.148,0.63-0.221c0.202-1.217,0.406-2.43,0.609-3.645
			c0.362-0.119,0.724-0.238,1.087-0.354c0.039-0.229,0.078-0.458,0.116-0.688c-0.956,0.303-1.911,0.626-2.868,0.971
			c-0.039,0.23-0.078,0.463-0.117,0.693c0.384-0.139,0.767-0.275,1.151-0.408C21.957,45.875,21.753,47.094,21.552,48.311"/>
	</g>
</g>
</svg>
