<?xml version="1.0" encoding="utf-8"?>
<!-- Generator: Adobe Illustrator 16.0.0, SVG Export Plug-In . SVG Version: 6.00 Build 0)  -->
<!DOCTYPE svg PUBLIC "-//W3C//DTD SVG 1.1//EN" "http://www.w3.org/Graphics/SVG/1.1/DTD/svg11.dtd">
<svg version="1.1" id="Calque_1" xmlns="http://www.w3.org/2000/svg" xmlns:xlink="http://www.w3.org/1999/xlink" x="0px" y="0px"
	 width="45.438px" height="87.438px" viewBox="2.837 2.59 45.438 87.438" enable-background="new 2.837 2.59 45.438 87.438"
	 xml:space="preserve">
<g>
	<path fill="#1D1D1B" d="M48.169,7.507c-0.091-0.53-0.246-1.172-0.533-1.836c-0.429-0.989-1.178-2.067-2.502-2.659
		c-0.656-0.293-1.449-0.452-2.335-0.426c-0.892,0.027-1.868,0.235-2.911,0.622L28.973,7.26c-1.622,0.603-2.934,2.461-2.932,4.153
		c0.002,1.692,1.317,2.577,2.939,1.975l10.915-4.051c0.226-0.082,0.417-0.138,0.583-0.177L27.195,43.124l-5.408,2.008L5.844,51.05
		c-1.622,0.603-2.934,2.462-2.932,4.155c0.002,1.691,1.318,2.576,2.94,1.974l15.944-5.918l2.227-0.826l-8.417,21.668L15.6,68.599
		c-0.002-1.691-1.318-2.576-2.939-1.975c-1.622,0.603-2.934,2.465-2.932,4.156L9.75,87.872c0.002,1.434,0.954,2.32,2.294,2.138
		c1.34-0.18,2.707-1.384,3.294-2.896l15.185-39.093l7.128-2.646l4.812-1.786v0.477c0,0.021,0.006,0.038,0.006,0.059l0.019,14.498
		l0.021,17.567c0.002,1.691,1.317,2.575,2.94,1.974c1.617-0.603,2.931-2.463,2.929-4.154l-0.021-17.567l-0.019-14.553l-0.002-1.502
		l-0.023-20.141L48.297,8.855C48.296,8.728,48.29,8.216,48.169,7.507z M42.454,37.46l-4.81,1.786l-3.939,1.462l8.726-22.312
		l0.006,4.027L42.454,37.46z"/>
</g>
</svg>
