<?xml version="1.0" encoding="utf-8"?>
<!-- Generator: Adobe Illustrator 15.0.0, SVG Export Plug-In . SVG Version: 6.00 Build 0)  -->
<!DOCTYPE svg PUBLIC "-//W3C//DTD SVG 1.0//EN" "http://www.w3.org/TR/2001/REC-SVG-20010904/DTD/svg10.dtd">
<svg version="1.0" id="Calque_1" xmlns="http://www.w3.org/2000/svg" xmlns:xlink="http://www.w3.org/1999/xlink" x="0px" y="0px"
	 width="57.799px" height="93.18px" viewBox="0 0 57.799 93.18" enable-background="new 0 0 57.799 93.18" xml:space="preserve">
<g>
	<path fill="#0000FF" d="M0.699,93.089h0.732l0.776-4.354h0.014l0.501,4.354h0.79l2.184-4.239h0.013l-0.783,4.239h0.732l0.841-4.766
		H5.201l-1.946,3.931H3.242l-0.385-3.931H1.553L0.699,93.089L0.699,93.089z M7.073,91.329c-0.039,0.212-0.051,0.411-0.051,0.598
		c0,0.777,0.533,1.253,1.458,1.253c1.182,0,1.895-0.578,2.132-1.896l0.54-2.961H10.42L9.867,91.36c-0.135,0.695-0.591,1.1-1.266,1.1
		c-0.629,0-0.822-0.313-0.822-0.713c0-0.167,0.013-0.348,0.058-0.598l0.515-2.826H7.619L7.073,91.329L7.073,91.329z M14.739,88.694
		c-0.302-0.332-0.726-0.461-1.162-0.461c-1.182,0-1.771,0.822-1.771,1.548c0,1.554,1.798,0.911,1.798,1.991
		c0,0.211-0.193,0.726-1.003,0.726c-0.431,0-0.848-0.167-1.117-0.56l-0.128,0.759c0.397,0.385,0.751,0.48,1.291,0.48
		c0.951,0,1.676-0.659,1.676-1.625c0-1.394-1.76-0.944-1.76-1.838c0-0.313,0.18-0.726,1.016-0.726c0.379,0,0.79,0.206,1.027,0.502
		L14.739,88.694L14.739,88.694z M15.042,93.089h2.929l0.121-0.681h-2.195l0.237-1.343h2.229l0.122-0.681H16.25l0.231-1.306h2.272
		l0.136-0.757h-3.006L15.042,93.089L15.042,93.089z M16.718,88.11h0.617l0.989-0.705v-0.014h-0.932L16.718,88.11L16.718,88.11z
		 M18.98,93.089h2.928l0.122-0.681h-2.196l0.238-1.343H22.3l0.122-0.681h-2.234l0.23-1.306h2.273l0.135-0.757h-3.005L18.98,93.089
		L18.98,93.089z M25.895,93.089h0.731l0.777-4.354h0.013l0.5,4.354h0.79l2.185-4.239h0.013l-0.784,4.239h0.732l0.841-4.766h-1.297
		l-1.946,3.931h-0.013l-0.386-3.931H26.75L25.895,93.089L25.895,93.089z M32.27,91.329c-0.039,0.212-0.053,0.411-0.053,0.598
		c0,0.777,0.533,1.253,1.458,1.253c1.183,0,1.896-0.578,2.133-1.896l0.54-2.961h-0.732l-0.553,3.037
		c-0.135,0.695-0.591,1.1-1.266,1.1c-0.629,0-0.821-0.313-0.821-0.713c0-0.167,0.013-0.348,0.058-0.598l0.514-2.826h-0.731
		L32.27,91.329L32.27,91.329z M39.935,88.694c-0.303-0.332-0.727-0.461-1.162-0.461c-1.184,0-1.773,0.822-1.773,1.548
		c0,1.554,1.798,0.911,1.798,1.991c0,0.211-0.192,0.726-1.002,0.726c-0.43,0-0.847-0.167-1.116-0.56l-0.129,0.759
		c0.398,0.385,0.752,0.48,1.291,0.48c0.951,0,1.677-0.659,1.677-1.625c0-1.394-1.761-0.944-1.761-1.838
		c0-0.313,0.181-0.726,1.017-0.726c0.378,0,0.789,0.206,1.026,0.502L39.935,88.694L39.935,88.694z M40.238,93.089h2.928l0.122-0.681
		h-2.196l0.238-1.343h2.229l0.122-0.681h-2.235l0.23-1.306h2.273l0.135-0.757H41.08L40.238,93.089L40.238,93.089z M44.428,91.329
		c-0.039,0.212-0.052,0.411-0.052,0.598c0,0.777,0.532,1.253,1.457,1.253c1.183,0,1.896-0.578,2.132-1.896l0.54-2.961h-0.731
		l-0.553,3.037c-0.136,0.695-0.592,1.1-1.266,1.1c-0.629,0-0.822-0.313-0.822-0.713c0-0.167,0.014-0.348,0.059-0.598l0.514-2.826
		h-0.731L44.428,91.329L44.428,91.329z M48.771,93.089h0.731l0.777-4.354h0.013l0.5,4.354h0.79l2.185-4.239h0.013l-0.784,4.239
		h0.732l0.841-4.766h-1.297l-1.946,3.931h-0.013l-0.385-3.931h-1.305L48.771,93.089L48.771,93.089z"/>
	<path d="M41.75,4.145L26.948,35.051c-0.716,1.494-0.084,3.286,1.41,4.001c1.494,0.716,3.286,0.084,4.001-1.409L47.162,6.737
		c0.716-1.495,0.085-3.286-1.41-4.002C44.258,2.019,42.466,2.65,41.75,4.145"/>
	<path d="M48.829,40.925V19.735V8.581c-0.001-0.125-0.006-0.629-0.128-1.365c-0.092-0.552-0.25-1.236-0.543-1.991
		c-0.437-1.123-1.201-2.45-2.552-3.511c-0.67-0.525-1.479-0.969-2.385-1.265C42.312,0.152,41.313,0,40.248,0H29.094
		c-1.657,0-3,1.343-3,3s1.343,3,3,3h11.153c0.901,0.008,1.292,0.197,1.562,0.368c0.201,0.136,0.354,0.299,0.501,0.524
		c0.218,0.33,0.377,0.808,0.448,1.188c0.037,0.188,0.056,0.35,0.062,0.444l0.006,0.09l0,0l1.894-0.035h-1.894v0.034l1.894-0.035
		h-1.894v11.154v21.189c0,1.657,1.343,3,3,3C47.485,43.925,48.829,42.582,48.829,40.925L48.829,40.925z"/>
	<path d="M9.359,55.173v16.734c0,1.404,0.971,2.617,2.34,2.926c1.369,0.31,2.767-0.371,3.369-1.639l16.116-33.916
		c0.711-1.497,0.073-3.286-1.422-3.997c-1.496-0.711-3.286-0.074-3.997,1.422l-10.406,21.9v-3.432c0-1.656-1.343-3-3-3
		S9.359,53.516,9.359,55.173L9.359,55.173z"/>
	<path d="M48.829,72.372V55.173V39.454c-0.001-0.125-0.006-0.405-0.072-0.806c-0.051-0.3-0.135-0.67-0.299-1.096
		c-0.244-0.627-0.69-1.423-1.521-2.075c-0.41-0.323-0.907-0.594-1.442-0.768c-0.536-0.176-1.102-0.257-1.664-0.256h-5.92H21.708
		H5.416c-1.657,0-3,1.343-3,3s1.343,3,3,3h16.292h16.201h5.92V39.85l-0.164,0.573c0.1,0.028,0.164,0.03,0.164,0.029V39.85
		l-0.164,0.573l0.354-1.234l-0.924,0.883c0.14,0.156,0.394,0.308,0.57,0.353l0.354-1.234l-0.924,0.883l0.664-0.635l-0.914,0.224
		c0.013,0.033,0.027,0.167,0.25,0.411l0.664-0.635l-0.914,0.224l0.848-0.207H42.83c0.002,0.165,0.007,0.164,0.016,0.207l0.848-0.207
		h-0.862v15.719v17.199c0,1.656,1.343,3,3,3C47.485,75.372,48.829,74.028,48.829,72.372L48.829,72.372z"/>
	<path fill="#FFFFFF" d="M42.292,4.512L27.49,35.418c-0.572,1.195-0.068,2.627,1.127,3.2c1.195,0.572,2.627,0.067,3.2-1.127
		L46.62,6.584c0.572-1.194,0.068-2.627-1.127-3.2C44.297,2.812,42.865,3.317,42.292,4.512"/>
	<path fill="#FFFFFF" d="M48.228,41.033v-21.19V8.688c0-0.102-0.005-0.573-0.12-1.268c-0.179-1.031-0.581-2.604-1.799-4.084
		c-0.607-0.731-1.436-1.418-2.469-1.893c-1.031-0.479-2.249-0.737-3.593-0.736H29.094c-1.325,0-2.399,1.074-2.399,2.399
		s1.074,2.398,2.399,2.398h11.153c1,0.008,1.522,0.228,1.896,0.47c0.278,0.187,0.489,0.416,0.674,0.698
		c0.272,0.419,0.451,0.968,0.533,1.398c0.042,0.214,0.062,0.396,0.071,0.511L43.429,8.7v0.012l1.277-0.022H43.43v0.022l1.277-0.022
		H43.43v11.153v21.19c0,1.325,1.073,2.399,2.398,2.399C47.153,43.432,48.228,42.357,48.228,41.033L48.228,41.033z"/>
	<path fill="#14FF97" d="M9.96,55.28v16.734c0,1.123,0.776,2.092,1.871,2.34c1.095,0.246,2.213-0.297,2.694-1.312l16.116-33.916
		c0.568-1.196,0.06-2.628-1.138-3.195c-1.195-0.569-2.627-0.061-3.195,1.137L14.758,61.375V55.28c0-1.325-1.073-2.399-2.398-2.399
		S9.96,53.955,9.96,55.28L9.96,55.28z"/>
	<path fill="#14FF97" d="M48.228,72.479V55.28V39.561c0-0.101-0.005-0.35-0.064-0.707c-0.096-0.528-0.288-1.347-0.979-2.196
		c-0.346-0.417-0.832-0.82-1.422-1.091c-0.59-0.273-1.26-0.407-1.933-0.405h-5.92H21.708H5.416c-1.325,0-2.398,1.074-2.398,2.399
		c0,1.324,1.073,2.398,2.398,2.398h16.292h16.201h5.92l0.035,0.001l0.075-0.561l-0.354,0.417c0.104,0.096,0.273,0.147,0.278,0.144
		l0.075-0.561l-0.354,0.417l0.401-0.476l-0.546,0.306l0.146,0.17l0.401-0.476l-0.546,0.306l0.162-0.09l-0.178,0.058l0.016,0.032
		l0.162-0.09l-0.178,0.058l0.008,0.035l0.728-0.09h-0.729l0.002,0.09l0.728-0.09h-0.729v15.72v17.199
		c0,1.323,1.073,2.397,2.398,2.397C47.153,74.878,48.228,73.804,48.228,72.479L48.228,72.479z"/>
	<path fill="#0000FF" d="M0,85.513h4.854l0.203-1.128H1.416l0.395-2.227h3.692l0.202-1.127H2l0.383-2.162H6.15l0.224-1.254H1.394
		L0,85.513L0,85.513z M8.242,85.513h1.213l1.171-6.644h2.097l0.224-1.254H7.422L7.199,78.87h2.213L8.242,85.513L8.242,85.513z
		 M14.204,85.513h1.213l1.288-7.219h0.021l0.83,7.219h1.309l3.619-7.025h0.021l-1.298,7.025h1.213l1.396-7.896h-2.15L18.44,84.13
		h-0.021l-0.639-6.514h-2.16L14.204,85.513L14.204,85.513z M28.538,82.226h-2.191l1.787-3.932h0.021L28.538,82.226L28.538,82.226z
		 M23.536,85.513h1.31l0.989-2.16h2.82l0.213,2.16h1.235l-0.927-7.896h-1.904L23.536,85.513L23.536,85.513z M33.592,78.87h1.448
		c0.725,0,1.555,0,1.555,0.885c0,1.097-0.99,1.373-1.896,1.373h-1.501L33.592,78.87L33.592,78.87z M31.218,85.513h1.214l0.648-3.746
		l2.544,3.746h1.511l-2.574-3.642c1.628,0,3.288-0.372,3.288-2.404c0-1.543-0.894-1.852-2.33-1.852h-2.928L31.218,85.513
		L31.218,85.513z M44.695,81.67h-1.214l-0.426,2.364c-0.352,0.318-0.915,0.5-1.543,0.5c-0.938,0-1.66-0.617-1.66-1.916
		c0-1.629,0.788-3.833,2.82-3.833c0.895,0,1.672,0.341,2.246,1.171l0.267-1.416c-0.798-0.979-1.713-1.074-2.641-1.074
		c-2.586,0-3.884,2.618-3.884,5.045c0,1.491,0.51,3.15,2.766,3.15c1.055,0,2.183-0.604,2.769-1.231L44.695,81.67L44.695,81.67z
		 M45.743,85.513h4.854l0.201-1.128h-3.64l0.394-2.227h3.693l0.202-1.127h-3.703l0.383-2.162h3.769l0.224-1.254h-4.98L45.743,85.513
		L45.743,85.513z M57.799,78.231c-0.5-0.554-1.201-0.767-1.925-0.767c-1.959,0-2.938,1.362-2.938,2.565
		c0,2.575,2.979,1.512,2.979,3.3c0,0.353-0.318,1.203-1.662,1.203c-0.712,0-1.403-0.275-1.851-0.926l-0.213,1.256
		c0.66,0.638,1.245,0.797,2.139,0.797c1.576,0,2.778-1.096,2.778-2.691c0-2.311-2.917-1.564-2.917-3.045
		c0-0.521,0.298-1.202,1.683-1.202c0.627,0,1.309,0.34,1.702,0.829L57.799,78.231L57.799,78.231z"/>
	<path fill="#0000FF" d="M23.165,72.044h-2.191l1.788-3.929h0.021L23.165,72.044L23.165,72.044z M18.163,75.332h1.31l0.989-2.161
		h2.82l0.213,2.161h1.234l-0.926-7.896h-1.905L18.163,75.332L18.163,75.332z M28.219,68.69h1.447c0.725,0,1.555,0,1.555,0.884
		c0,1.097-0.99,1.374-1.896,1.374h-1.5L28.219,68.69L28.219,68.69z M25.845,75.332h1.213l0.648-3.747l2.544,3.747h1.512l-2.575-3.64
		c1.628,0,3.288-0.373,3.288-2.406c0-1.542-0.894-1.852-2.33-1.852h-2.928L25.845,75.332L25.845,75.332z M34.591,75.332h1.214
		l1.17-6.642h2.097l0.223-1.256h-5.522l-0.225,1.256h2.215L34.591,75.332L34.591,75.332z"/>
</g>
</svg>
