<?xml version="1.0" encoding="utf-8"?>
<!-- Generator: Adobe Illustrator 16.0.0, SVG Export Plug-In . SVG Version: 6.00 Build 0)  -->
<!DOCTYPE svg PUBLIC "-//W3C//DTD SVG 1.1//EN" "http://www.w3.org/Graphics/SVG/1.1/DTD/svg11.dtd">
<svg version="1.1" id="Calque_1" xmlns="http://www.w3.org/2000/svg" xmlns:xlink="http://www.w3.org/1999/xlink" x="0px" y="0px"
	 width="39.686px" height="39.688px" viewBox="0 0 39.686 39.688" enable-background="new 0 0 39.686 39.688" xml:space="preserve">
<g>
	<path fill="#1D1D1B" d="M20.166,10.728c0-1.232,0.351-3.693-1.02-3.378C18.483,7.504,18.53,8.44,18.53,9.2v1.742
		c0,1.204-0.271,3.366,1.072,2.977C20.41,13.685,20.166,11.853,20.166,10.728 M11.587,22.23h2.038v-1.742H7.726
		c-0.031,0.005-0.029,0.041-0.026,0.079v1.663c0.661,0.019,1.394-0.036,2.011,0.026v10.885h1.876L11.587,22.23L11.587,22.23z
		 M17.136,33.141h1.688v-9.437h-1.688v7.211c-0.298,0.301-0.572,0.957-1.207,0.832c-0.469-0.095-0.321-1.139-0.321-1.771v-6.271
		h-1.663c-0.03,0.004-0.028,0.042-0.025,0.08v4.799c0,1.251-0.265,3.812,0.401,4.423c0.79,0.728,1.99-0.102,2.44-0.535
		c0.143-0.139,0.252-0.337,0.375-0.321V33.141L17.136,33.141z M23.651,28.557c0,1.25,0.227,2.943-0.562,3.163
		c-0.447,0.125-0.734-0.113-1.072-0.402v-5.765c0.264-0.304,0.79-0.673,1.261-0.348C23.876,25.62,23.651,27.35,23.651,28.557
		 M25.313,28.236c0-1.409,0.141-3.197-0.32-3.995c-0.417-0.722-1.514-0.785-2.199-0.349c-0.323,0.207-0.532,0.527-0.777,0.696
		v-4.102h-1.661c-0.032,0.005-0.029,0.041-0.026,0.079V33.14h1.688v-0.91c0.478,0.678,1.801,1.5,2.682,0.75
		c0.566-0.482,0.617-1.505,0.617-2.6L25.313,28.236L25.313,28.236z M30.113,27.323H28.37c0.018-0.837-0.101-1.703,0.349-2.063
		c0.302-0.244,0.785-0.21,1.045,0C30.202,25.615,30.103,26.581,30.113,27.323 M31.801,28.717c0.117-2.623,0.014-4.942-2.28-5.119
		c-1.779-0.138-2.638,0.952-2.786,2.466c-0.067,0.688-0.026,1.476-0.026,2.253c0,0.781-0.044,1.593,0,2.306
		c0.101,1.613,1.042,2.653,2.601,2.653c1.751,0,2.672-1.297,2.493-3.378h-1.717c0.124,1.067-0.198,2.187-1.18,1.796
		c-0.812-0.321-0.454-1.869-0.535-2.977H31.801L31.801,28.717z M33.946,28.905c-0.154,3.112-0.123,5.974-2.226,7.186
		c-1.014,0.585-2.562,0.571-4.021,0.672c-1.515,0.104-3.036,0.105-4.531,0.16h-6.863c-1.446-0.05-2.946-0.06-4.396-0.16
		c-1.445-0.102-2.886-0.072-3.941-0.591c-2.145-1.053-2.252-3.585-2.413-6.648v-4.934c0.13-1.662,0.144-3.571,0.67-4.853
		c0.525-1.279,1.551-2.069,3.217-2.252c3.315-0.363,6.814-0.375,10.562-0.375c1.828,0,3.647-0.02,5.389,0.055
		c1.779,0.075,3.524,0.096,5.121,0.349c1.435,0.228,2.5,1.235,2.896,2.574c0.415,1.4,0.441,3.348,0.535,4.987L33.946,28.905
		L33.946,28.905z M28.343,15.42h-1.771v-0.938c-0.117-0.027-0.223,0.176-0.349,0.295c-0.41,0.396-1.339,1.116-2.252,0.672
		c-0.989-0.483-0.67-3.329-0.67-4.854V5.903c-0.001-0.045,0.021-0.068,0.054-0.079h1.716v6.246c0,0.479-0.112,1.692,0.216,1.851
		c0.488,0.234,1.217-0.514,1.285-0.804c0.115-0.479,0-1.279,0-1.823v-5.47c0.581,0.017,1.233-0.036,1.771,0.026V15.42z
		 M21.935,10.675c0,1.386,0.043,2.856-0.375,3.646c-0.342,0.646-0.946,1.042-1.608,1.181c-1.209,0.251-2.374-0.28-2.843-1.234
		c-0.382-0.777-0.348-2.47-0.348-3.752c0-1.438-0.112-2.746,0.429-3.646c0.354-0.59,0.999-1.043,1.903-1.126
		c1.169-0.107,2.125,0.511,2.493,1.26C22.054,7.954,21.935,9.49,21.935,10.675 M16.787,2.579c-0.643,2.204-1.362,4.506-2.038,6.702
		c-0.102,0.328-0.236,0.689-0.269,0.991c-0.088,0.828,0,1.714,0,2.574c0,0.857,0.022,1.713-0.025,2.573h-1.932
		c-0.121-1.891,0.165-3.503,0-5.201c-0.061-0.63-0.312-1.319-0.509-1.984c-0.579-1.964-1.286-3.793-1.903-5.655h2.064
		c0.448,1.643,0.885,3.297,1.341,4.933c0.447-1.626,0.868-3.278,1.286-4.933H16.787L16.787,2.579z M39.499,32.24V7.26
		c0,0,0-7.26-7.261-7.26H7.26C7.26,0,0,0,0,7.26v24.98c0,0,0,7.26,7.26,7.26h24.98C32.24,39.5,39.499,39.5,39.499,32.24"/>
</g>
</svg>
