<?xml version="1.0" encoding="utf-8"?>
<!-- Generator: Adobe Illustrator 15.0.0, SVG Export Plug-In . SVG Version: 6.00 Build 0)  -->
<!DOCTYPE svg PUBLIC "-//W3C//DTD SVG 1.1//EN" "http://www.w3.org/Graphics/SVG/1.1/DTD/svg11.dtd">
<svg version="1.1" id="Calque_1" xmlns="http://www.w3.org/2000/svg" xmlns:xlink="http://www.w3.org/1999/xlink" x="0px" y="0px"
	 width="39.686px" height="39.687px" viewBox="88 51.333 39.686 39.687" enable-background="new 88 51.333 39.686 39.687"
	 xml:space="preserve">
<g>
	<path fill="#0000FF" d="M121.269,51.333c-8.95,0-17.9,0-26.852,0c-3.534,0.743-5.674,2.883-6.417,6.417c0,8.95,0,17.902,0,26.852
		c0.743,3.534,2.882,5.674,6.417,6.418c4.512,0,9.022,0,13.535,0c0-4.961,0-9.92,0-14.881c-1.602,0-3.202,0-4.804,0
		c0.042-2.171-0.084-4.509,0.062-6.573c1.58,0,3.16,0,4.74,0c-0.35-5.204,1.254-8.669,4.551-10.302
		c2.11-1.047,5.005-0.657,8.216-0.633c0,2.17,0,4.341,0,6.511c-1.842,0.297-4.649-0.484-5.877,0.188
		c-1.092,0.601-0.66,2.574-0.759,4.234c2.19,0.042,4.55-0.083,6.636,0.062c-0.042,2.149,0.085,4.466-0.062,6.509
		c-2.17,0-4.34,0-6.51,0c-0.146,4.837-0.022,9.939-0.062,14.882c2.395,0,4.79,0,7.185,0c3.529-0.75,5.668-2.89,6.417-6.418
		c0-8.949,0-17.901,0-26.852C126.946,54.212,124.798,52.082,121.269,51.333z"/>
</g>
</svg>
