<?xml version="1.0" encoding="utf-8"?>
<!-- Generator: Adobe Illustrator 15.0.0, SVG Export Plug-In . SVG Version: 6.00 Build 0)  -->
<!DOCTYPE svg PUBLIC "-//W3C//DTD SVG 1.1//EN" "http://www.w3.org/Graphics/SVG/1.1/DTD/svg11.dtd">
<svg version="1.1" id="Calque_1" xmlns="http://www.w3.org/2000/svg" xmlns:xlink="http://www.w3.org/1999/xlink" x="0px" y="0px"
	 width="39.686px" height="39.687px" viewBox="0 0 39.686 39.687" enable-background="new 0 0 39.686 39.687" xml:space="preserve">
<path fill="#0000FF" d="M33.268,0H6.417C2.883,0.743,0.743,2.884,0,6.417v26.854c0.743,3.535,2.883,5.674,6.417,6.416h26.851
	c3.528-0.748,5.668-2.887,6.418-6.416V6.417C38.945,2.88,36.797,0.749,33.268,0z M29.715,15.401
	c0.029,8.438-6.16,15.038-14.609,14.512c-2.745-0.17-4.489-0.944-6.615-2.071c2.279,0.125,5.416-0.623,7.01-2.074
	c-2.258-0.375-3.808-1.457-4.443-3.455c0.566,0.242,1.465,0.037,2.074,0c-2.094-0.801-3.644-2.148-3.851-4.836
	c0.709,0.146,1.179,0.531,2.073,0.492c-1.383-0.824-2.824-4.23-1.383-6.416c2.416,2.618,5.352,4.718,10.069,5.034
	c-1.215-5.268,5.417-7.713,8.392-4.442c1.09-0.258,2.057-0.643,2.961-1.086c-0.316,1.197-1.123,1.903-1.976,2.565
	c1.066-0.053,1.826-0.409,2.666-0.688C31.426,13.888,30.629,14.703,29.715,15.401z"/>
</svg>
